<svg xmlns="http://www.w3.org/2000/svg" width="253.75" height="30" viewBox="0 0 253.75 30">
    <defs>
        <clipPath id="clip-path">
            <path id="crop" fill="none" d="M0 0H253.75V30H0z"/>
        </clipPath>
        <style>
            .cls-3{fill:#0f0f0f}
        </style>
    </defs>
    <g id="Logotype" clip-path="url(#clip-path)">
        <g id="Group_96" data-name="Group 96">
            <path id="Path_151" d="M244.481 25.321a4.636 4.636 0 1 1 4.641 4.55 4.6 4.6 0 0 1-4.641-4.55zm8.574 0a3.94 3.94 0 1 0-3.933 3.853 3.9 3.9 0 0 0 3.933-3.853zm-6.324.013a2.581 2.581 0 0 1 2.5-2.851 2.315 2.315 0 0 1 2.264 1.546l-.86.33a1.484 1.484 0 0 0-1.4-1.052c-1.088 0-1.581.988-1.581 2.028s.481 1.989 1.594 1.989a1.387 1.387 0 0 0 1.366-1.026l.822.3a2.216 2.216 0 0 1-2.188 1.558 2.565 2.565 0 0 1-2.517-2.822z" class="cls-3" data-name="Path 151"/>
            <path id="Path_152" d="M14.592 12.262h13.826l-.172 3.625a16.017 16.017 0 0 1-1.227 5.675 14.083 14.083 0 0 1-2.907 4.4 12.994 12.994 0 0 1-4.286 2.87 13.869 13.869 0 0 1-5.405 1.036 14.689 14.689 0 0 1-5.858-1.165 14.214 14.214 0 0 1-4.673-3.191 15.122 15.122 0 0 1-4.2-10.531 15.457 15.457 0 0 1 1.1-5.8 15.049 15.049 0 0 1 3.036-4.79A14.168 14.168 0 0 1 14.248-.038a14.737 14.737 0 0 1 4.07.561 13.652 13.652 0 0 1 3.639 1.64A13.344 13.344 0 0 1 24.951 4.8a13.094 13.094 0 0 1 2.132 3.582h-8.227a6.14 6.14 0 0 0-2.519-1.23 10.826 10.826 0 0 0-2.175-.281 7.106 7.106 0 0 0-2.972.626 7.559 7.559 0 0 0-2.411 1.722 8.04 8.04 0 0 0-1.616 2.568 8.359 8.359 0 0 0-.582 3.107 8.468 8.468 0 0 0 .582 3.151 8.026 8.026 0 0 0 1.616 2.568 7.551 7.551 0 0 0 2.411 1.727 7.1 7.1 0 0 0 2.972.625 9.543 9.543 0 0 0 1.4-.129 7.586 7.586 0 0 0 1.766-.518 6.894 6.894 0 0 0 1.809-1.144 5.584 5.584 0 0 0 1.443-2.007h-5.988z" class="cls-3" data-name="Path 152"/>
            <path id="Path_153" fill="#e50914" d="M188.585 14.981a14.807 14.807 0 0 1-8.98 13.725 14.43 14.43 0 0 1-5.793 1.165 14.165 14.165 0 0 1-5.728-1.165 14.832 14.832 0 0 1-4.673-3.194 15.245 15.245 0 0 1-3.165-4.726 14.5 14.5 0 0 1-1.163-5.8 14.783 14.783 0 0 1 1.141-5.786 15.3 15.3 0 0 1 3.123-4.769 14.929 14.929 0 0 1 4.672-3.258 13.986 13.986 0 0 1 5.793-1.208h14.773zm-6.891 0V6.867h-7.882a7.7 7.7 0 0 0-5.534 2.352 8.368 8.368 0 0 0-1.68 2.59 8.11 8.11 0 0 0-.625 3.172 8.2 8.2 0 0 0 .6 3.151 7.622 7.622 0 0 0 1.658 2.525 7.935 7.935 0 0 0 2.5 1.683 7.946 7.946 0 0 0 6.18 0 8.291 8.291 0 0 0 2.5-1.683 7.487 7.487 0 0 0 1.68-2.525 8.215 8.215 0 0 0 .6-3.151" data-name="Path 153"/>
            <path id="Path_154" d="M70.508-.038l9.734 21.19 9.691-21.19h7.236v29.909h-6.891V15.758L83.99 29.871h-7.538l-6.288-14.113v14.113h-6.891V-.038z" class="cls-3" data-name="Path 154"/>
            <path id="Path_155" d="M107.257-.029l6.89 11.412 6.764-11.462 8.054-.029L117.621 19.1l.037 10.776-6.891.025-.038-10.776L99.247 0z" class="cls-3" data-name="Path 155"/>
            <path id="Path_156" d="M156.314 20.246a14.678 14.678 0 0 1-2.218 3.927 15.3 15.3 0 0 1-3.209 3.043 14.64 14.64 0 0 1-8.442 2.654 14.321 14.321 0 0 1-5.75-1.165 14.52 14.52 0 0 1-4.673-3.194 15.051 15.051 0 0 1-3.122-4.748 14.781 14.781 0 0 1-1.141-5.783 14.664 14.664 0 0 1 1.163-5.826 15.464 15.464 0 0 1 3.166-4.769 14.985 14.985 0 0 1 4.674-3.237 14.373 14.373 0 0 1 10.185-.474 15.541 15.541 0 0 1 3.941 1.964 14.44 14.44 0 0 1 3.187 3.021 15.049 15.049 0 0 1 2.2 3.928h-7.925a7.983 7.983 0 0 0-2.588-1.987 7.383 7.383 0 0 0-3.273-.734 7.7 7.7 0 0 0-5.534 2.352 8.368 8.368 0 0 0-1.68 2.59 8.11 8.11 0 0 0-.625 3.172 8.192 8.192 0 0 0 .6 3.151 7.622 7.622 0 0 0 1.658 2.525 7.935 7.935 0 0 0 2.5 1.683 7.927 7.927 0 0 0 6.417-.108 7.909 7.909 0 0 0 2.606-1.985z" class="cls-3" data-name="Path 156"/>
            <path id="Path_157" d="M201.835 29.867H191.07V-.038h10.765a18.625 18.625 0 0 1 6.214 1.03 15.656 15.656 0 0 1 5.163 2.982 14.117 14.117 0 0 1 3.523 4.714 14.434 14.434 0 0 1 1.291 6.182 14.437 14.437 0 0 1-1.291 6.183 14.658 14.658 0 0 1-3.479 4.736 15.2 15.2 0 0 1-5.142 3.025 18.56 18.56 0 0 1-6.279 1.053zm-3.763-7.016h3.763a11.325 11.325 0 0 0 4.113-.679 8.143 8.143 0 0 0 2.867-1.8 7.245 7.245 0 0 0 1.663-2.543 8.043 8.043 0 0 0 0-5.833 7.25 7.25 0 0 0-1.663-2.543 8.152 8.152 0 0 0-2.867-1.8 11.352 11.352 0 0 0-4.113-.679h-3.763z" class="cls-3" data-name="Path 157"/>
            <path id="Path_158" d="M220.52 29.871V-.038h21.58v7.017h-14.578v4.429H242.1v7.016h-14.578v4.43H242.1v7.016z" class="cls-3" data-name="Path 158"/>
            <path id="Path_159" d="M45.818-.167a15.084 15.084 0 1 0 15.056 15.08A15.068 15.068 0 0 0 45.818-.167zm0 22.958a7.874 7.874 0 1 1 7.862-7.878 7.864 7.864 0 0 1-7.862 7.877z" class="cls-3" data-name="Path 159"/>
        </g>
    </g>
</svg>
