<svg class="svg-icon" style="width: 1em; height: 1em;vertical-align: middle;fill: currentColor;overflow: hidden;" viewBox="0 0 1024 1024" version="1.1" xmlns="http://www.w3.org/2000/svg"><path d="M382.72 960a28.06 28.06 0 0 1-2.816-0.128c-160.928-14.016-282.272-90.56-282.272-178.016 0-84.768 127.232-140.032 254.912-158.912V610.4c-93.28-70.016-106.624-191.648-106.624-313.44C245.92 151.072 331.776 64 475.584 64c142.144 0 220.448 82.72 220.448 232.96 0 69.76-23.84 157.888-62.208 230.016-8.288 15.584-27.648 21.536-43.296 13.216-15.584-8.288-21.536-27.68-13.216-43.296 33.248-62.496 54.72-140.96 54.72-199.968 0-113.696-51.168-168.96-156.448-168.96-109.92 0-165.664 56.832-165.664 168.96 0 109.728 11.136 218.336 91.808 269.696 9.216 5.888 14.816 16.064 14.816 27.008v57.472c0 16.384-12.352 30.08-28.64 31.808-138.112 14.592-226.272 68.32-226.272 98.912 0 39.552 85.152 102.176 223.84 114.272 17.6 1.536 30.624 17.056 29.088 34.656C413.12 947.424 399.136 960 382.72 960z m386.048-191.936h-128c-17.696 0-32-14.304-32-32s14.304-32 32-32h128c17.696 0 32 14.304 32 32s-14.304 32-32 32z m-64 99.2h-64c-17.696 0-32-14.304-32-32s14.304-32 32-32h64c17.696 0 32 14.304 32 32s-14.304 32-32 32z m127.904 96H576.928c-52.928 0-96-43.072-96-96v-163.2c0-52.928 43.072-96 96-96h255.744c52.928 0 96 43.072 96 96v163.2c0 52.928-43.072 96-96 96z m-255.776-291.2c-17.664 0-32 14.336-32 32v163.2c0 17.664 14.336 32 32 32H832.64c17.664 0 32-14.336 32-32v-163.2c0-17.664-14.336-32-32-32H576.896z" fill="#333333" /></svg>