<svg class="svg-icon" style="width: 1em; height: 1em;vertical-align: middle;fill: currentColor;overflow: hidden;" viewBox="0 0 1024 1024" version="1.1" xmlns="http://www.w3.org/2000/svg"><path d="M722.794 445.378L442.403 725.77l-141.197-141.2c-15.62-15.619-40.947-15.621-56.568 0-15.621 15.621-15.621 40.947 0 56.568l169.481 169.483c7.811 7.812 18.046 11.716 28.284 11.716 10.237 0 20.474-3.905 28.284-11.716l308.675-308.675c15.621-15.621 15.621-40.947 0-56.568s-40.947-15.621-56.568 0z"  /><path d="M852.153 163.004H736.204c-0.681-46.657-38.378-84.514-84.987-85.398-4.558-43.546-41.485-77.6-86.219-77.6H458.999c-44.732 0-81.66 34.054-86.218 77.6-46.605 0.888-84.307 38.744-84.987 85.398H171.846c-46.965 0-85.038 38.073-85.038 85.039v690.912c0 46.966 38.073 85.039 85.038 85.039h680.307c46.964 0 85.038-38.073 85.038-85.039V248.043c0-46.966-38.074-85.039-85.038-85.039z m-477.699-25.415h27.854c16.567 0 29.999-13.431 29.999-30v-20.89c0-14.719 11.975-26.693 26.692-26.693h105.999c14.719 0 26.693 11.975 26.693 26.693v20.891c0 16.568 13.432 30 30 30h27.854c14.29 0 25.99 11.288 26.66 25.415 0.02 0.424 0.032 0.849 0.032 1.278V233.311c0 14.718-11.974 26.692-26.692 26.692H374.454c-14.719 0-26.693-11.974-26.693-26.692V164.283c0-0.429 0.012-0.854 0.032-1.278 0.669-14.128 12.371-25.416 26.661-25.416z m502.737 801.366c0 13.806-11.231 25.039-25.038 25.039H171.846c-13.807 0-25.039-11.233-25.039-25.039V248.043c0-13.807 11.232-25.04 25.039-25.04h115.916v10.307c0 47.802 38.89 86.691 86.692 86.691h275.091c47.803 0 86.691-38.889 86.691-86.691v-10.307h115.917c13.807 0 25.038 11.233 25.038 25.04v690.912z"  /></svg>